<svg width="48" height="48" viewBox="0 0 48 48" fill="none" xmlns="http://www.w3.org/2000/svg">
<path d="M8.33251 6.29999C8.06977 6.30852 7.81142 6.36968 7.57275 6.47985C7.33408 6.59002 7.11993 6.74696 6.943 6.94137C6.76607 7.13579 6.62995 7.36372 6.54269 7.61169C6.45543 7.85966 6.41881 8.12262 6.43501 8.38499C6.69751 12.885 7.93501 23.865 13.86 30.7125C20.955 38.9625 30.195 41.805 39.675 41.385C40.1832 41.3546 40.6609 41.1326 41.0117 40.7637C41.3625 40.3948 41.5602 39.9065 41.565 39.3975V32.19C41.5591 31.5175 41.3274 30.8665 40.9071 30.3415C40.4869 29.8165 39.9024 29.448 39.2475 29.295L34.5 28.245C33.9128 28.1198 33.3016 28.1737 32.7454 28.3997C32.1892 28.6256 31.7135 29.0133 31.38 29.5125L30.33 31.1025C30.2336 31.248 30.0895 31.3553 29.9225 31.406C29.7554 31.4566 29.576 31.4474 29.415 31.38C27 30.3375 17.3775 25.8375 16.32 18.2475C16.2993 18.1009 16.3224 17.9515 16.3865 17.818C16.4505 17.6845 16.5527 17.573 16.68 17.4975L18.585 16.335C19.1075 16.0112 19.5179 15.5346 19.7607 14.9699C20.0035 14.4052 20.067 13.7795 19.9425 13.1775L18.9 8.34749C18.7476 7.67074 18.3654 7.06773 17.8184 6.64109C17.2714 6.21444 16.5935 5.99054 15.9 6.00749L8.33251 6.29999Z" stroke="black" stroke-width="3"/>
</svg>
