<svg width="24" height="25" viewBox="0 0 24 25" fill="none" xmlns="http://www.w3.org/2000/svg">
<g clip-path="url(#clip0_105_9111)">
<path d="M23.625 12.2856C23.625 5.86377 18.4219 0.660645 12 0.660645C5.57812 0.660645 0.375 5.86377 0.375 12.2856C0.375 18.0878 4.62609 22.8972 10.1836 23.77V15.6461H7.23047V12.2856H10.1836V9.72439C10.1836 6.81111 11.918 5.20189 14.5744 5.20189C15.8466 5.20189 17.1769 5.42877 17.1769 5.42877V8.28814H15.7106C14.2669 8.28814 13.8164 9.18439 13.8164 10.1036V12.2856H17.0405L16.5248 15.6461H13.8164V23.77C19.3739 22.8972 23.625 18.0878 23.625 12.2856Z" fill="#B1B1B1"/>
</g>
<defs>
<clipPath id="clip0_105_9111">
<rect width="24" height="24" fill="white" transform="translate(0 0.285645)"/>
</clipPath>
</defs>
</svg>
