<svg width="24" height="28" viewBox="0 0 24 28" fill="none" xmlns="http://www.w3.org/2000/svg">
<g clip-path="url(#clip0_105_9109)">
<path d="M12.0053 7.83938C8.5982 7.83938 5.84999 10.5876 5.84999 13.9947C5.84999 17.4019 8.5982 20.1501 12.0053 20.1501C15.4125 20.1501 18.1607 17.4019 18.1607 13.9947C18.1607 10.5876 15.4125 7.83938 12.0053 7.83938ZM12.0053 17.9965C9.80356 17.9965 8.00356 16.2019 8.00356 13.9947C8.00356 11.7876 9.7982 9.99296 12.0053 9.99296C14.2125 9.99296 16.0071 11.7876 16.0071 13.9947C16.0071 16.2019 14.2071 17.9965 12.0053 17.9965ZM19.8482 7.5876C19.8482 8.38581 19.2053 9.02331 18.4125 9.02331C17.6143 9.02331 16.9768 8.38046 16.9768 7.5876C16.9768 6.79474 17.6196 6.15188 18.4125 6.15188C19.2053 6.15188 19.8482 6.79474 19.8482 7.5876ZM23.925 9.04474C23.8339 7.12153 23.3946 5.41795 21.9857 4.01438C20.5821 2.61081 18.8786 2.17153 16.9553 2.0751C14.9732 1.9626 9.03213 1.9626 7.04999 2.0751C5.13213 2.16617 3.42856 2.60545 2.01963 4.00903C0.610704 5.4126 0.176775 7.11617 0.0803467 9.03938C-0.0321533 11.0215 -0.0321533 16.9626 0.0803467 18.9447C0.171418 20.868 0.610704 22.5715 2.01963 23.9751C3.42856 25.3787 5.12678 25.818 7.04999 25.9144C9.03213 26.0269 14.9732 26.0269 16.9553 25.9144C18.8786 25.8233 20.5821 25.384 21.9857 23.9751C23.3893 22.5715 23.8286 20.868 23.925 18.9447C24.0375 16.9626 24.0375 11.0269 23.925 9.04474ZM21.3643 21.0715C20.9464 22.1215 20.1375 22.9305 19.0821 23.3537C17.5018 23.9805 13.7518 23.8358 12.0053 23.8358C10.2589 23.8358 6.50356 23.9751 4.92856 23.3537C3.87856 22.9358 3.06963 22.1269 2.64642 21.0715C2.01963 19.4912 2.16428 15.7412 2.16428 13.9947C2.16428 12.2483 2.02499 8.49295 2.64642 6.91795C3.06428 5.86795 3.8732 5.05903 4.92856 4.63581C6.50892 4.00903 10.2589 4.15367 12.0053 4.15367C13.7518 4.15367 17.5071 4.01438 19.0821 4.63581C20.1321 5.05367 20.9411 5.8626 21.3643 6.91795C21.9911 8.49831 21.8464 12.2483 21.8464 13.9947C21.8464 15.7412 21.9911 19.4965 21.3643 21.0715Z" fill="#B1B1B1"/>
</g>
<defs>
<clipPath id="clip0_105_9109">
<rect width="24" height="27.4286" fill="white" transform="translate(0 0.285645)"/>
</clipPath>
</defs>
</svg>
