<svg width="18" height="18" viewBox="0 0 18 18" fill="none" xmlns="http://www.w3.org/2000/svg">
<path d="M1 2.77778C1 1.79594 1.79594 1 2.77778 1H5.69266C6.07526 1 6.41494 1.24483 6.53593 1.6078L7.86729 5.60196C8.0072 6.02162 7.81724 6.48028 7.4216 6.67811L5.41512 7.68133C6.39489 9.8544 8.1456 11.6052 10.3187 12.5849L11.3219 10.5784C11.5197 10.1828 11.9784 9.9928 12.398 10.1327L16.3922 11.4641C16.7552 11.5851 17 11.9247 17 12.3074V15.2222C17 16.2041 16.2041 17 15.2222 17H14.3333C6.96954 17 1 11.0305 1 3.66667V2.77778Z" stroke="#BFBFBF" stroke-width="2" stroke-linecap="round" stroke-linejoin="round"/>
</svg>
