<svg width="48" height="48" viewBox="0 0 48 48" fill="none" xmlns="http://www.w3.org/2000/svg">
<path d="M8.33238 6.29999C8.06965 6.30852 7.8113 6.36968 7.57263 6.47985C7.33395 6.59002 7.11981 6.74696 6.94288 6.94137C6.76595 7.13579 6.62982 7.36372 6.54257 7.61169C6.45531 7.85966 6.41869 8.12262 6.43488 8.38499C6.69738 12.885 7.93488 23.865 13.8599 30.7125C20.9549 38.9625 30.1949 41.805 39.6749 41.385C40.183 41.3546 40.6607 41.1326 41.0115 40.7637C41.3623 40.3948 41.5601 39.9065 41.5649 39.3975V32.19C41.559 31.5175 41.3273 30.8665 40.907 30.3415C40.4867 29.8165 39.9023 29.448 39.2474 29.295L34.4999 28.245C33.9127 28.1198 33.3015 28.1737 32.7453 28.3997C32.189 28.6256 31.7134 29.0133 31.3799 29.5125L30.3299 31.1025C30.2335 31.248 30.0894 31.3553 29.9223 31.406C29.7553 31.4566 29.5759 31.4474 29.4149 31.38C26.9999 30.3375 17.3774 25.8375 16.3199 18.2475C16.2992 18.1009 16.3223 17.9515 16.3864 17.818C16.4504 17.6845 16.5526 17.573 16.6799 17.4975L18.5849 16.335C19.1074 16.0112 19.5178 15.5346 19.7606 14.9699C20.0034 14.4052 20.0669 13.7795 19.9424 13.1775L18.8999 8.34749C18.7475 7.67074 18.3653 7.06773 17.8183 6.64109C17.2713 6.21444 16.5934 5.99054 15.8999 6.00749L8.33238 6.29999Z" stroke="#F50401" stroke-width="3"/>
</svg>
